<mxfile>
    <diagram id="e2Knq5ejBwG0df5FsYgu" name="Use Case">
        <mxGraphModel dx="1971" dy="790" grid="1" gridSize="10" guides="1" tooltips="1" connect="1" arrows="1" fold="1" page="1" pageScale="1" pageWidth="827" pageHeight="1169" math="0" shadow="0">
            <root>
                <mxCell id="5s4d75NhRXf15Bo-to1g-0"/>
                <mxCell id="5s4d75NhRXf15Bo-to1g-1" parent="5s4d75NhRXf15Bo-to1g-0"/>
                <mxCell id="5s4d75NhRXf15Bo-to1g-22" style="rounded=0;orthogonalLoop=1;jettySize=auto;html=1;entryX=0.007;entryY=0.414;entryDx=0;entryDy=0;entryPerimeter=0;startArrow=none;startFill=0;startSize=15;endArrow=none;endFill=0;strokeWidth=1;" parent="5s4d75NhRXf15Bo-to1g-1" source="5s4d75NhRXf15Bo-to1g-2" target="5s4d75NhRXf15Bo-to1g-15" edge="1">
                    <mxGeometry relative="1" as="geometry"/>
                </mxCell>
                <mxCell id="5s4d75NhRXf15Bo-to1g-2" value="Admin" style="shape=umlActor;verticalLabelPosition=bottom;verticalAlign=top;html=1;" parent="5s4d75NhRXf15Bo-to1g-1" vertex="1">
                    <mxGeometry x="-210" y="140" width="120" height="230" as="geometry"/>
                </mxCell>
                <mxCell id="5s4d75NhRXf15Bo-to1g-3" value="Manage Flights" style="ellipse;whiteSpace=wrap;html=1;" parent="5s4d75NhRXf15Bo-to1g-1" vertex="1">
                    <mxGeometry x="490" y="335" width="140" height="70" as="geometry"/>
                </mxCell>
                <mxCell id="5s4d75NhRXf15Bo-to1g-8" style="edgeStyle=orthogonalEdgeStyle;rounded=0;orthogonalLoop=1;jettySize=auto;html=1;startArrow=none;startFill=0;startSize=15;endArrow=classicThin;endFill=1;strokeWidth=1;exitX=0.564;exitY=-0.014;exitDx=0;exitDy=0;exitPerimeter=0;" parent="5s4d75NhRXf15Bo-to1g-1" source="5s4d75NhRXf15Bo-to1g-4" target="5s4d75NhRXf15Bo-to1g-3" edge="1">
                    <mxGeometry relative="1" as="geometry"/>
                </mxCell>
                <mxCell id="5s4d75NhRXf15Bo-to1g-4" value="Create Flights" style="ellipse;whiteSpace=wrap;html=1;" parent="5s4d75NhRXf15Bo-to1g-1" vertex="1">
                    <mxGeometry x="220" y="515" width="140" height="70" as="geometry"/>
                </mxCell>
                <mxCell id="5s4d75NhRXf15Bo-to1g-11" style="edgeStyle=orthogonalEdgeStyle;rounded=0;orthogonalLoop=1;jettySize=auto;html=1;startArrow=none;startFill=0;startSize=15;endArrow=classicThin;endFill=1;strokeWidth=1;" parent="5s4d75NhRXf15Bo-to1g-1" source="5s4d75NhRXf15Bo-to1g-5" target="5s4d75NhRXf15Bo-to1g-3" edge="1">
                    <mxGeometry relative="1" as="geometry"/>
                </mxCell>
                <mxCell id="5s4d75NhRXf15Bo-to1g-5" value="Read Flights" style="ellipse;whiteSpace=wrap;html=1;" parent="5s4d75NhRXf15Bo-to1g-1" vertex="1">
                    <mxGeometry x="400" y="515" width="140" height="70" as="geometry"/>
                </mxCell>
                <mxCell id="5s4d75NhRXf15Bo-to1g-12" style="edgeStyle=orthogonalEdgeStyle;rounded=0;orthogonalLoop=1;jettySize=auto;html=1;startArrow=none;startFill=0;startSize=15;endArrow=classicThin;endFill=1;strokeWidth=1;" parent="5s4d75NhRXf15Bo-to1g-1" source="5s4d75NhRXf15Bo-to1g-6" target="5s4d75NhRXf15Bo-to1g-3" edge="1">
                    <mxGeometry relative="1" as="geometry"/>
                </mxCell>
                <mxCell id="5s4d75NhRXf15Bo-to1g-6" value="Update Flights" style="ellipse;whiteSpace=wrap;html=1;" parent="5s4d75NhRXf15Bo-to1g-1" vertex="1">
                    <mxGeometry x="590" y="515" width="140" height="70" as="geometry"/>
                </mxCell>
                <mxCell id="5s4d75NhRXf15Bo-to1g-13" style="edgeStyle=orthogonalEdgeStyle;rounded=0;orthogonalLoop=1;jettySize=auto;html=1;entryX=0.5;entryY=1;entryDx=0;entryDy=0;startArrow=none;startFill=0;startSize=15;endArrow=classicThin;endFill=1;strokeWidth=1;exitX=0.5;exitY=0;exitDx=0;exitDy=0;" parent="5s4d75NhRXf15Bo-to1g-1" source="5s4d75NhRXf15Bo-to1g-7" target="5s4d75NhRXf15Bo-to1g-3" edge="1">
                    <mxGeometry relative="1" as="geometry"/>
                </mxCell>
                <mxCell id="5s4d75NhRXf15Bo-to1g-7" value="Delete Flights" style="ellipse;whiteSpace=wrap;html=1;" parent="5s4d75NhRXf15Bo-to1g-1" vertex="1">
                    <mxGeometry x="760" y="515" width="140" height="70" as="geometry"/>
                </mxCell>
                <mxCell id="5s4d75NhRXf15Bo-to1g-14" value="View Reservations" style="ellipse;whiteSpace=wrap;html=1;" parent="5s4d75NhRXf15Bo-to1g-1" vertex="1">
                    <mxGeometry x="-10" y="335" width="140" height="70" as="geometry"/>
                </mxCell>
                <mxCell id="5s4d75NhRXf15Bo-to1g-15" value="Login" style="ellipse;whiteSpace=wrap;html=1;" parent="5s4d75NhRXf15Bo-to1g-1" vertex="1">
                    <mxGeometry x="170" y="80" width="140" height="70" as="geometry"/>
                </mxCell>
                <mxCell id="5s4d75NhRXf15Bo-to1g-16" value="Verification" style="ellipse;whiteSpace=wrap;html=1;" parent="5s4d75NhRXf15Bo-to1g-1" vertex="1">
                    <mxGeometry x="460" y="20" width="140" height="70" as="geometry"/>
                </mxCell>
                <mxCell id="5s4d75NhRXf15Bo-to1g-17" value="Error" style="ellipse;whiteSpace=wrap;html=1;" parent="5s4d75NhRXf15Bo-to1g-1" vertex="1">
                    <mxGeometry x="460" y="160" width="140" height="70" as="geometry"/>
                </mxCell>
                <mxCell id="5s4d75NhRXf15Bo-to1g-18" value="&amp;lt;&amp;lt;include&amp;gt;&amp;gt;" style="html=1;verticalAlign=bottom;labelBackgroundColor=none;endArrow=open;endFill=0;dashed=1;strokeWidth=1;exitX=1;exitY=0.5;exitDx=0;exitDy=0;entryX=0;entryY=0.5;entryDx=0;entryDy=0;" parent="5s4d75NhRXf15Bo-to1g-1" source="5s4d75NhRXf15Bo-to1g-15" target="5s4d75NhRXf15Bo-to1g-16" edge="1">
                    <mxGeometry width="160" relative="1" as="geometry">
                        <mxPoint x="220" y="320" as="sourcePoint"/>
                        <mxPoint x="380" y="320" as="targetPoint"/>
                    </mxGeometry>
                </mxCell>
                <mxCell id="5s4d75NhRXf15Bo-to1g-19" value="&amp;lt;&amp;lt;extend&amp;gt;&amp;gt;" style="html=1;verticalAlign=bottom;labelBackgroundColor=none;endArrow=open;endFill=0;dashed=1;strokeWidth=1;entryX=1;entryY=0.5;entryDx=0;entryDy=0;exitX=0;exitY=0.5;exitDx=0;exitDy=0;" parent="5s4d75NhRXf15Bo-to1g-1" source="5s4d75NhRXf15Bo-to1g-17" target="5s4d75NhRXf15Bo-to1g-15" edge="1">
                    <mxGeometry width="160" relative="1" as="geometry">
                        <mxPoint x="210" y="250" as="sourcePoint"/>
                        <mxPoint x="380" y="320" as="targetPoint"/>
                    </mxGeometry>
                </mxCell>
                <mxCell id="5s4d75NhRXf15Bo-to1g-20" value="&amp;lt;&amp;lt;include&amp;gt;&amp;gt;" style="html=1;verticalAlign=bottom;labelBackgroundColor=none;endArrow=open;endFill=0;dashed=1;strokeWidth=1;exitX=0.5;exitY=1;exitDx=0;exitDy=0;entryX=0.5;entryY=0;entryDx=0;entryDy=0;" parent="5s4d75NhRXf15Bo-to1g-1" source="5s4d75NhRXf15Bo-to1g-15" target="5s4d75NhRXf15Bo-to1g-3" edge="1">
                    <mxGeometry width="160" relative="1" as="geometry">
                        <mxPoint x="220" y="320" as="sourcePoint"/>
                        <mxPoint x="380" y="320" as="targetPoint"/>
                    </mxGeometry>
                </mxCell>
                <mxCell id="5s4d75NhRXf15Bo-to1g-21" value="&amp;lt;&amp;lt;include&amp;gt;&amp;gt;" style="html=1;verticalAlign=bottom;labelBackgroundColor=none;endArrow=open;endFill=0;dashed=1;strokeWidth=1;exitX=0.5;exitY=1;exitDx=0;exitDy=0;entryX=0.5;entryY=0;entryDx=0;entryDy=0;" parent="5s4d75NhRXf15Bo-to1g-1" source="5s4d75NhRXf15Bo-to1g-15" target="5s4d75NhRXf15Bo-to1g-14" edge="1">
                    <mxGeometry width="160" relative="1" as="geometry">
                        <mxPoint x="250" y="160" as="sourcePoint"/>
                        <mxPoint x="430" y="330" as="targetPoint"/>
                    </mxGeometry>
                </mxCell>
                <mxCell id="5s4d75NhRXf15Bo-to1g-24" style="rounded=0;orthogonalLoop=1;jettySize=auto;html=1;entryX=0.007;entryY=0.414;entryDx=0;entryDy=0;entryPerimeter=0;startArrow=none;startFill=0;startSize=15;endArrow=none;endFill=0;strokeWidth=1;" parent="5s4d75NhRXf15Bo-to1g-1" source="5s4d75NhRXf15Bo-to1g-25" target="5s4d75NhRXf15Bo-to1g-36" edge="1">
                    <mxGeometry relative="1" as="geometry"/>
                </mxCell>
                <mxCell id="5s4d75NhRXf15Bo-to1g-25" value="User" style="shape=umlActor;verticalLabelPosition=bottom;verticalAlign=top;html=1;" parent="5s4d75NhRXf15Bo-to1g-1" vertex="1">
                    <mxGeometry x="-220" y="920" width="120" height="230" as="geometry"/>
                </mxCell>
                <mxCell id="5s4d75NhRXf15Bo-to1g-26" value="Manage Reservations" style="ellipse;whiteSpace=wrap;html=1;" parent="5s4d75NhRXf15Bo-to1g-1" vertex="1">
                    <mxGeometry x="480" y="1115" width="140" height="70" as="geometry"/>
                </mxCell>
                <mxCell id="5s4d75NhRXf15Bo-to1g-27" style="edgeStyle=orthogonalEdgeStyle;rounded=0;orthogonalLoop=1;jettySize=auto;html=1;startArrow=none;startFill=0;startSize=15;endArrow=classicThin;endFill=1;strokeWidth=1;exitX=0.564;exitY=-0.014;exitDx=0;exitDy=0;exitPerimeter=0;" parent="5s4d75NhRXf15Bo-to1g-1" source="5s4d75NhRXf15Bo-to1g-28" target="5s4d75NhRXf15Bo-to1g-26" edge="1">
                    <mxGeometry relative="1" as="geometry"/>
                </mxCell>
                <mxCell id="5s4d75NhRXf15Bo-to1g-28" value="Create Reservations" style="ellipse;whiteSpace=wrap;html=1;" parent="5s4d75NhRXf15Bo-to1g-1" vertex="1">
                    <mxGeometry x="300" y="1295" width="140" height="70" as="geometry"/>
                </mxCell>
                <mxCell id="5s4d75NhRXf15Bo-to1g-29" style="edgeStyle=orthogonalEdgeStyle;rounded=0;orthogonalLoop=1;jettySize=auto;html=1;startArrow=none;startFill=0;startSize=15;endArrow=classicThin;endFill=1;strokeWidth=1;" parent="5s4d75NhRXf15Bo-to1g-1" source="5s4d75NhRXf15Bo-to1g-30" target="5s4d75NhRXf15Bo-to1g-26" edge="1">
                    <mxGeometry relative="1" as="geometry"/>
                </mxCell>
                <mxCell id="5s4d75NhRXf15Bo-to1g-30" value="Read Reservations" style="ellipse;whiteSpace=wrap;html=1;" parent="5s4d75NhRXf15Bo-to1g-1" vertex="1">
                    <mxGeometry x="480" y="1295" width="140" height="70" as="geometry"/>
                </mxCell>
                <mxCell id="5s4d75NhRXf15Bo-to1g-31" style="edgeStyle=orthogonalEdgeStyle;rounded=0;orthogonalLoop=1;jettySize=auto;html=1;startArrow=none;startFill=0;startSize=15;endArrow=classicThin;endFill=1;strokeWidth=1;exitX=0.5;exitY=0;exitDx=0;exitDy=0;" parent="5s4d75NhRXf15Bo-to1g-1" source="5s4d75NhRXf15Bo-to1g-32" target="5s4d75NhRXf15Bo-to1g-26" edge="1">
                    <mxGeometry relative="1" as="geometry"/>
                </mxCell>
                <mxCell id="5s4d75NhRXf15Bo-to1g-32" value="Update Reservations" style="ellipse;whiteSpace=wrap;html=1;" parent="5s4d75NhRXf15Bo-to1g-1" vertex="1">
                    <mxGeometry x="670" y="1295" width="140" height="70" as="geometry"/>
                </mxCell>
                <mxCell id="5s4d75NhRXf15Bo-to1g-35" value="View Flights" style="ellipse;whiteSpace=wrap;html=1;" parent="5s4d75NhRXf15Bo-to1g-1" vertex="1">
                    <mxGeometry x="-20" y="1115" width="140" height="70" as="geometry"/>
                </mxCell>
                <mxCell id="5s4d75NhRXf15Bo-to1g-36" value="Login" style="ellipse;whiteSpace=wrap;html=1;" parent="5s4d75NhRXf15Bo-to1g-1" vertex="1">
                    <mxGeometry x="160" y="860" width="140" height="70" as="geometry"/>
                </mxCell>
                <mxCell id="5s4d75NhRXf15Bo-to1g-37" value="Verification" style="ellipse;whiteSpace=wrap;html=1;" parent="5s4d75NhRXf15Bo-to1g-1" vertex="1">
                    <mxGeometry x="450" y="800" width="140" height="70" as="geometry"/>
                </mxCell>
                <mxCell id="5s4d75NhRXf15Bo-to1g-38" value="Error" style="ellipse;whiteSpace=wrap;html=1;" parent="5s4d75NhRXf15Bo-to1g-1" vertex="1">
                    <mxGeometry x="450" y="940" width="140" height="70" as="geometry"/>
                </mxCell>
                <mxCell id="5s4d75NhRXf15Bo-to1g-39" value="&amp;lt;&amp;lt;include&amp;gt;&amp;gt;" style="html=1;verticalAlign=bottom;labelBackgroundColor=none;endArrow=open;endFill=0;dashed=1;strokeWidth=1;exitX=1;exitY=0.5;exitDx=0;exitDy=0;entryX=0;entryY=0.5;entryDx=0;entryDy=0;" parent="5s4d75NhRXf15Bo-to1g-1" source="5s4d75NhRXf15Bo-to1g-36" target="5s4d75NhRXf15Bo-to1g-37" edge="1">
                    <mxGeometry width="160" relative="1" as="geometry">
                        <mxPoint x="210" y="1100" as="sourcePoint"/>
                        <mxPoint x="370" y="1100" as="targetPoint"/>
                    </mxGeometry>
                </mxCell>
                <mxCell id="5s4d75NhRXf15Bo-to1g-40" value="&amp;lt;&amp;lt;extend&amp;gt;&amp;gt;" style="html=1;verticalAlign=bottom;labelBackgroundColor=none;endArrow=open;endFill=0;dashed=1;strokeWidth=1;entryX=1;entryY=0.5;entryDx=0;entryDy=0;exitX=0;exitY=0.5;exitDx=0;exitDy=0;" parent="5s4d75NhRXf15Bo-to1g-1" source="5s4d75NhRXf15Bo-to1g-38" target="5s4d75NhRXf15Bo-to1g-36" edge="1">
                    <mxGeometry width="160" relative="1" as="geometry">
                        <mxPoint x="200" y="1030" as="sourcePoint"/>
                        <mxPoint x="370" y="1100" as="targetPoint"/>
                    </mxGeometry>
                </mxCell>
                <mxCell id="5s4d75NhRXf15Bo-to1g-41" value="&amp;lt;&amp;lt;include&amp;gt;&amp;gt;" style="html=1;verticalAlign=bottom;labelBackgroundColor=none;endArrow=open;endFill=0;dashed=1;strokeWidth=1;exitX=0.5;exitY=1;exitDx=0;exitDy=0;entryX=0.5;entryY=0;entryDx=0;entryDy=0;" parent="5s4d75NhRXf15Bo-to1g-1" source="5s4d75NhRXf15Bo-to1g-36" target="5s4d75NhRXf15Bo-to1g-26" edge="1">
                    <mxGeometry width="160" relative="1" as="geometry">
                        <mxPoint x="210" y="1100" as="sourcePoint"/>
                        <mxPoint x="370" y="1100" as="targetPoint"/>
                    </mxGeometry>
                </mxCell>
                <mxCell id="5s4d75NhRXf15Bo-to1g-42" value="&amp;lt;&amp;lt;include&amp;gt;&amp;gt;" style="html=1;verticalAlign=bottom;labelBackgroundColor=none;endArrow=open;endFill=0;dashed=1;strokeWidth=1;exitX=0.5;exitY=1;exitDx=0;exitDy=0;entryX=0.5;entryY=0;entryDx=0;entryDy=0;" parent="5s4d75NhRXf15Bo-to1g-1" source="5s4d75NhRXf15Bo-to1g-36" target="5s4d75NhRXf15Bo-to1g-35" edge="1">
                    <mxGeometry width="160" relative="1" as="geometry">
                        <mxPoint x="240" y="940" as="sourcePoint"/>
                        <mxPoint x="420" y="1110" as="targetPoint"/>
                    </mxGeometry>
                </mxCell>
                <mxCell id="b8l7bMs4pHHTaDUutWJT-0" value="Add Passenger" style="ellipse;whiteSpace=wrap;html=1;" parent="5s4d75NhRXf15Bo-to1g-1" vertex="1">
                    <mxGeometry x="230" y="1115" width="140" height="70" as="geometry"/>
                </mxCell>
                <mxCell id="b8l7bMs4pHHTaDUutWJT-1" value="&amp;lt;&amp;lt;include&amp;gt;&amp;gt;" style="html=1;verticalAlign=bottom;labelBackgroundColor=none;endArrow=open;endFill=0;dashed=1;strokeWidth=1;exitX=0.5;exitY=1;exitDx=0;exitDy=0;entryX=0.5;entryY=0;entryDx=0;entryDy=0;" parent="5s4d75NhRXf15Bo-to1g-1" source="5s4d75NhRXf15Bo-to1g-36" target="b8l7bMs4pHHTaDUutWJT-0" edge="1">
                    <mxGeometry width="160" relative="1" as="geometry">
                        <mxPoint x="260" y="1080" as="sourcePoint"/>
                        <mxPoint x="450" y="1260" as="targetPoint"/>
                    </mxGeometry>
                </mxCell>
                <mxCell id="9W5ihPjkvNhzB4gmiHyk-0" value="View Users" style="ellipse;whiteSpace=wrap;html=1;" parent="5s4d75NhRXf15Bo-to1g-1" vertex="1">
                    <mxGeometry x="220" y="335" width="140" height="70" as="geometry"/>
                </mxCell>
                <mxCell id="9W5ihPjkvNhzB4gmiHyk-1" value="&amp;lt;&amp;lt;include&amp;gt;&amp;gt;" style="html=1;verticalAlign=bottom;labelBackgroundColor=none;endArrow=open;endFill=0;dashed=1;strokeWidth=1;entryX=0.5;entryY=0;entryDx=0;entryDy=0;" parent="5s4d75NhRXf15Bo-to1g-1" target="9W5ihPjkvNhzB4gmiHyk-0" edge="1">
                    <mxGeometry width="160" relative="1" as="geometry">
                        <mxPoint x="240" y="150" as="sourcePoint"/>
                        <mxPoint x="70" y="345" as="targetPoint"/>
                    </mxGeometry>
                </mxCell>
            </root>
        </mxGraphModel>
    </diagram>
</mxfile>